<?xml version="1.0" standalone="no"?>
<!DOCTYPE svg PUBLIC "-//W3C//DTD SVG 20010904//EN"
 "http://www.w3.org/TR/2001/REC-SVG-20010904/DTD/svg10.dtd">
<svg version="1.0" xmlns="http://www.w3.org/2000/svg"
 width="128.000000pt" height="128.000000pt" viewBox="0 0 128.000000 128.000000"
 preserveAspectRatio="xMidYMid meet">
<metadata>
Created by potrace 1.13, written by Peter Selinger 2001-2015
</metadata>
<g transform="translate(0.000000,128.000000) scale(0.100000,-0.100000)"
fill="#000000" stroke="none">
<path d="M200 1178 l0 -103 -85 3 c-56 2 -85 0 -85 -7 0 -7 27 -11 70 -11 49
0 70 -4 70 -12 0 -7 25 13 55 45 l55 57 0 65 0 65 -40 0 -40 0 0 -102z"/>
<path d="M290 1219 c0 -37 4 -58 10 -54 6 3 10 31 10 61 0 30 -4 54 -10 54 -6
0 -10 -27 -10 -61z"/>
<path d="M340 1235 c0 -25 5 -45 11 -45 5 0 7 -5 4 -11 -4 -6 -14 -8 -22 -5
-8 3 -12 2 -8 -3 3 -5 -20 -31 -50 -56 -52 -44 -125 -133 -125 -151 0 -4 15
13 33 38 17 25 50 60 72 79 21 19 48 42 58 52 32 31 108 76 159 93 27 9 47 18
45 21 -4 4 -69 -20 -144 -54 -9 -4 -13 8 -13 41 0 25 -4 46 -10 46 -5 0 -10
-20 -10 -45z"/>
<path d="M392 1250 c0 -19 2 -27 5 -17 2 9 2 25 0 35 -3 9 -5 1 -5 -18z"/>
<path d="M1110 1191 c0 -50 5 -93 10 -96 6 -4 10 28 10 89 0 57 -4 96 -10 96
-6 0 -10 -36 -10 -89z"/>
<path d="M465 1071 c-152 -46 -238 -122 -275 -246 -6 -22 -16 -50 -22 -62 -15
-31 -4 -120 22 -182 13 -28 24 -50 26 -48 2 1 -6 32 -17 67 -34 109 -8 196 88
301 40 43 75 68 131 94 99 47 162 55 226 27 60 -27 51 -12 -17 27 -70 40 -92
43 -162 22z"/>
<path d="M1057 1014 c39 -38 76 -80 82 -94 7 -14 -12 2 -42 36 -31 33 -73 73
-94 89 -33 24 -30 20 18 -31 66 -70 116 -145 182 -274 43 -82 49 -90 44 -55
-4 22 -6 43 -7 47 0 3 -12 20 -26 37 -18 22 -21 29 -9 25 15 -6 16 -4 6 15 -7
12 -9 27 -5 33 5 7 3 8 -6 3 -8 -5 -11 -3 -8 5 2 7 15 17 27 22 21 7 22 6 11
-7 -11 -13 -10 -14 4 -9 11 4 16 1 16 -10 0 -9 7 -16 15 -16 18 0 20 16 3 23
-10 4 -10 6 0 6 9 1 12 28 12 101 l0 100 -72 2 -73 2 75 6 75 6 -85 2 c-61 1
-90 -3 -104 -13 -11 -8 -16 -18 -13 -22 4 -4 13 -1 19 5 7 7 16 12 22 12 5 0
1 -7 -10 -15 -18 -14 -18 -16 21 -53 52 -50 79 -86 35 -46 -35 31 -143 113
-169 129 -8 4 18 -23 56 -61z m123 -184 c6 -11 8 -20 6 -20 -3 0 -10 9 -16 20
-6 11 -8 20 -6 20 3 0 10 -9 16 -20z"/>
<path d="M843 991 c26 -24 45 -46 42 -50 -8 -13 41 -52 57 -46 10 4 35 -15 74
-57 68 -74 61 -61 -15 30 -30 35 -81 82 -115 106 -87 61 -98 65 -43 17z m82
-71 c10 -11 16 -20 13 -20 -3 0 -13 9 -23 20 -10 11 -16 20 -13 20 3 0 13 -9
23 -20z"/>
<path d="M936 989 c38 -39 62 -55 31 -21 -15 16 -17 21 -17 41 0 5 -12 11 -26
14 -25 4 -24 3 12 -34z"/>
<path d="M827 923 c-4 -3 -7 -14 -7 -24 0 -10 -7 -22 -16 -27 -11 -6 -13 -12
-6 -16 6 -4 9 -13 6 -21 -7 -18 13 -55 31 -55 8 0 15 5 15 10 0 6 -7 10 -15
10 -17 0 -19 34 -6 93 9 38 9 42 -2 30z"/>
<path d="M366 861 c-13 -46 -15 -66 -7 -74 8 -8 11 -2 11 20 0 16 5 44 11 61
6 17 9 37 7 44 -2 6 -12 -17 -22 -51z"/>
<path d="M424 865 c-7 -19 -14 -45 -13 -57 1 -22 1 -22 9 2 21 63 28 90 24 90
-3 0 -12 -16 -20 -35z"/>
<path d="M542 878 c-17 -17 -15 -38 5 -45 14 -5 13 -8 -5 -14 -12 -5 -22 -13
-22 -19 0 -16 27 -23 47 -11 16 9 14 11 -12 11 -29 1 -29 2 -6 11 19 8 21 12
11 24 -7 8 -10 24 -7 35 6 23 5 24 -11 8z"/>
<path d="M658 883 c7 -3 16 -2 19 1 4 3 -2 6 -13 5 -11 0 -14 -3 -6 -6z"/>
<path d="M721 868 c-16 -45 -21 -77 -12 -82 5 -3 12 16 16 44 4 31 11 48 17
43 7 -3 8 -1 4 5 -10 17 -15 15 -25 -10z"/>
<path d="M615 860 c-22 -24 -13 -66 16 -75 33 -11 87 33 60 49 -5 3 -8 -2 -7
-12 1 -12 -8 -18 -31 -20 -28 -3 -33 0 -33 18 0 12 5 30 10 41 14 24 8 24 -15
-1z"/>
<path d="M477 854 c4 -10 1 -14 -8 -12 -18 4 -20 -9 -6 -42 l10 -25 7 30 c11
45 11 65 0 65 -5 0 -7 -7 -3 -16z"/>
<path d="M760 856 c0 -2 7 -7 16 -10 8 -3 12 -2 9 4 -6 10 -25 14 -25 6z"/>
<path d="M858 851 c10 -6 10 -10 -2 -20 -11 -9 -15 -9 -19 1 -4 8 -6 7 -6 -4
-1 -23 12 -23 32 0 22 24 21 32 0 32 -14 0 -15 -2 -5 -9z"/>
<path d="M642 833 c-13 -5 -7 -23 9 -23 6 0 8 4 5 9 -4 5 0 12 6 14 7 3 9 5 3
5 -5 0 -16 -2 -23 -5z"/>
<path d="M881 827 c2 -1 13 -9 24 -17 19 -14 19 -14 6 3 -7 9 -18 17 -24 17
-6 0 -8 -1 -6 -3z"/>
<path d="M780 770 c8 -5 20 -10 25 -10 6 0 3 5 -5 10 -8 5 -19 10 -25 10 -5 0
-3 -5 5 -10z"/>
<path d="M1156 697 c31 -48 55 -90 51 -93 -3 -3 -28 28 -56 69 -28 42 -56 79
-62 83 -7 4 2 -14 20 -39 17 -25 47 -79 67 -119 20 -40 34 -61 31 -45 -5 29 2
34 22 15 9 -9 7 0 -4 27 -23 56 -58 114 -95 155 -19 22 -9 2 26 -53z"/>
<path d="M670 751 c26 -19 115 -42 118 -31 2 5 13 10 25 10 18 0 16 -4 -13
-21 -51 -31 -120 -89 -120 -100 0 -6 19 6 43 26 53 45 162 99 185 90 13 -5 4
-12 -33 -31 -58 -29 -115 -85 -115 -113 0 -30 19 -35 26 -6 l6 25 30 -25 c34
-29 50 -32 41 -9 -5 14 -1 15 26 9 20 -4 37 -2 47 6 12 10 13 9 9 -3 -4 -9
-16 -20 -28 -26 -15 -7 -17 -11 -6 -11 8 -1 26 10 39 24 20 21 21 27 9 42 -9
11 -10 14 -1 9 16 -10 15 9 -3 44 -9 17 -12 30 -7 30 10 0 37 -51 33 -63 -1
-5 3 -6 8 -3 5 4 14 -2 20 -11 18 -32 12 -6 -12 44 -39 84 -54 98 -117 100
-51 2 -54 1 -35 -14 19 -15 19 -15 -4 -8 -13 4 -47 8 -75 10 -28 1 -64 5 -81
9 -23 6 -26 5 -15 -3z m117 -17 c-3 -3 -12 -4 -19 -1 -8 3 -5 6 6 6 11 1 17
-2 13 -5z m63 -133 c0 -12 -20 -25 -27 -18 -7 7 6 27 18 27 5 0 9 -4 9 -9z
m65 -11 c3 -5 2 -10 -4 -10 -5 0 -13 5 -16 10 -3 6 -2 10 4 10 5 0 13 -4 16
-10z"/>
<path d="M1111 664 c12 -20 33 -62 46 -93 19 -44 23 -49 19 -22 -6 31 -71 151
-83 151 -2 0 5 -16 18 -36z"/>
<path d="M1005 664 c22 -34 45 -124 45 -178 0 -51 -32 -160 -66 -228 -15 -30
-20 -48 -13 -48 7 0 9 -3 6 -7 -8 -7 -58 -11 -212 -15 l-101 -3 -74 54 c-95
69 -97 71 -71 64 24 -6 29 12 6 21 -8 3 -15 10 -15 15 0 6 7 8 15 5 8 -4 15
-1 15 5 0 6 5 11 11 11 6 0 8 -8 4 -19 -4 -14 0 -20 17 -25 40 -10 85 -6 98 9
15 18 8 51 -9 47 -8 -2 -11 3 -8 11 3 7 -4 19 -14 26 -11 6 -17 17 -13 23 4 7
3 8 -4 4 -15 -9 -15 6 0 39 16 37 -2 53 -28 23 -15 -18 -15 -20 -1 -9 15 12
17 11 17 -3 0 -27 -19 -56 -37 -56 -13 0 -14 7 -9 39 3 22 2 42 -3 45 -10 6
-24 -70 -16 -84 3 -4 -11 -18 -31 -30 -27 -17 -35 -28 -34 -49 3 -42 2 -43
-32 -14 -60 51 -98 94 -98 111 -1 15 -2 15 -11 -1 -9 -15 -12 -16 -25 -2 -8 8
-22 31 -30 51 -8 20 -18 34 -21 30 -3 -3 5 -27 18 -53 17 -34 30 -48 43 -46
11 1 27 -8 37 -20 26 -31 23 -44 -3 -21 -14 12 -10 4 10 -22 17 -23 52 -57 76
-75 25 -19 46 -37 46 -41 0 -19 -43 -5 -87 28 -36 27 -24 12 47 -60 52 -53 90
-96 85 -96 -5 0 7 -17 25 -37 28 -31 26 -29 -12 6 -26 24 -45 48 -42 53 3 5 1
7 -5 6 -5 -2 -45 28 -88 66 -66 59 -61 51 37 -48 64 -64 124 -118 135 -121 11
-2 31 -7 45 -10 l25 -6 -25 18 c-14 10 -36 29 -50 43 -15 14 -18 19 -8 11 10
-8 30 -16 44 -17 26 -3 26 -2 8 19 -9 12 4 0 30 -26 65 -65 82 -54 21 14 l-49
54 60 -58 c33 -31 63 -57 68 -57 5 0 6 19 3 43 -5 37 -4 40 8 24 16 -22 26
-10 35 43 5 31 9 35 38 38 17 2 32 2 32 -1 0 -2 -11 -31 -25 -65 -14 -34 -25
-67 -24 -74 0 -7 5 0 11 15 12 33 41 33 46 -1 3 -21 7 -22 103 -22 l99 0 0
151 0 151 25 -6 c27 -7 35 8 9 18 -8 3 -13 10 -9 15 3 5 -4 11 -15 13 -37 6
-21 22 21 22 40 0 41 0 35 30 -11 56 -129 266 -150 266 -4 0 -1 -12 9 -26z
m-521 -374 c21 -17 34 -30 28 -30 -13 0 -101 70 -122 96 -9 11 0 7 20 -9 19
-15 53 -41 74 -57z m571 70 c3 -5 1 -10 -4 -10 -6 0 -11 5 -11 10 0 6 2 10 4
10 3 0 8 -4 11 -10z m-428 -6 c-3 -3 -12 -4 -19 -1 -8 3 -5 6 6 6 11 1 17 -2
13 -5z m37 -9 c-8 -19 -48 -30 -71 -19 -14 6 -9 9 20 12 20 2 37 7 37 13 0 5
4 9 10 9 5 0 7 -7 4 -15z"/>
<path d="M62 655 l-32 -14 0 -164 0 -165 76 -4 c52 -2 78 -8 84 -18 14 -21 12
-36 -2 -22 -7 7 -42 12 -85 12 l-73 0 0 -125 0 -125 170 0 170 0 0 31 c0 20
10 43 29 64 16 19 31 33 33 32 3 -1 -16 18 -41 43 -95 93 -174 195 -212 274
-41 85 -54 141 -15 67 35 -67 39 -34 6 50 -27 69 -29 72 -31 39 -2 -31 -3 -32
-6 -7 -6 37 -31 48 -71 32z m327 -468 c19 -10 31 -20 28 -23 -9 -9 -88 50
-137 102 l-45 48 60 -54 c34 -30 76 -63 94 -73z m11 -41 c0 -2 -7 -9 -15 -16
-13 -11 -14 -10 -9 4 5 14 24 23 24 12z"/>
<path d="M561 610 c18 -22 37 -40 43 -40 5 0 -8 18 -29 40 -21 22 -41 40 -43
40 -1 0 12 -18 29 -40z"/>
<path d="M404 578 c31 -39 37 -53 32 -75 -4 -16 -8 -36 -9 -46 -1 -9 -5 -17
-9 -17 -5 0 -13 0 -19 0 -7 0 -10 14 -7 35 5 43 -8 46 -17 4 -9 -41 15 -70 44
-52 26 16 33 5 15 -22 -15 -23 -12 -29 26 -50 10 -6 9 -1 -3 13 -18 20 -18 22
-1 51 16 27 19 28 30 13 12 -16 13 -15 14 5 0 35 10 52 28 46 11 -3 13 -2 6 4
-6 4 -14 17 -18 28 -8 19 -9 18 -16 -7 -12 -42 -21 -52 -31 -37 -6 10 -9 5 -9
-16 -1 -23 -3 -26 -10 -14 -5 9 -7 32 -3 52 6 37 18 48 26 25 2 -7 3 -8 3 -3
-1 6 -26 33 -56 60 l-54 50 38 -47z"/>
<path d="M691 568 c-4 -13 -14 -47 -22 -76 -15 -60 -6 -79 32 -66 l24 8 -25 6
c-14 4 -24 11 -23 16 1 6 8 38 16 72 14 63 14 81 -2 40z"/>
<path d="M347 563 c-2 -4 -8 -24 -12 -43 -4 -19 -12 -42 -19 -50 -10 -13 -9
-13 6 -1 17 13 44 88 35 98 -3 2 -7 1 -10 -4z"/>
<path d="M224 495 c-12 -39 -14 -59 -7 -66 8 -8 13 -7 17 0 4 6 2 11 -3 11 -7
0 -3 22 9 53 23 61 23 57 11 57 -5 0 -17 -25 -27 -55z"/>
<path d="M565 530 c27 -12 43 -12 25 0 -8 5 -22 9 -30 9 -10 0 -8 -3 5 -9z"/>
<path d="M818 523 c7 -3 16 -2 19 1 4 3 -2 6 -13 5 -11 0 -14 -3 -6 -6z"/>
<path d="M883 514 c-10 -26 -9 -79 2 -82 5 -2 11 2 13 10 2 9 0 8 -7 -2 -10
-13 -11 -13 -11 0 0 8 4 32 9 53 9 37 5 50 -6 21z"/>
<path d="M966 511 c-11 -12 -25 -17 -34 -14 -10 4 -14 3 -10 -1 3 -4 12 -8 20
-10 7 -1 22 -7 33 -14 17 -10 17 -11 3 -12 -9 0 -20 -5 -24 -11 -9 -15 15 -29
35 -21 12 5 10 8 -9 13 -24 7 -24 7 -2 8 23 1 29 15 11 27 -6 3 -9 17 -6 30 5
29 5 29 -17 5z"/>
<path d="M768 489 c-10 -10 -13 -19 -8 -19 6 0 10 -6 10 -14 0 -23 27 -38 52
-30 22 8 22 8 -7 14 -27 5 -30 9 -27 38 2 37 3 37 -20 11z"/>
<path d="M699 483 c-11 -15 -11 -16 1 -5 21 18 34 15 19 -5 -13 -16 -12 -17 4
-4 9 7 17 17 17 22 0 15 -27 10 -41 -8z"/>
<path d="M817 478 c-25 -9 -29 -28 -6 -28 6 0 7 5 4 10 -3 6 3 10 14 10 12 0
21 5 21 10 0 6 -1 10 -2 9 -2 0 -15 -5 -31 -11z"/>
<path d="M320 376 c0 -2 8 -10 18 -17 15 -13 16 -12 3 4 -13 16 -21 21 -21 13z"/>
<path d="M392 60 c0 -19 2 -27 5 -17 2 9 2 25 0 35 -3 9 -5 1 -5 -18z"/>
</g>
</svg>
